<mxfile host="65bd71144e">
    <diagram id="48o23PYrDI9pIVHjh0LU" name="ページ2">
        <mxGraphModel dx="1664" dy="1003" grid="1" gridSize="10" guides="1" tooltips="1" connect="1" arrows="1" fold="1" page="1" pageScale="1" pageWidth="827" pageHeight="1169" math="0" shadow="0">
            <root>
                <mxCell id="0"/>
                <mxCell id="1" parent="0"/>
                <mxCell id="cjnw1ftKUHv8uV_TTD3V-1" value="" style="edgeStyle=none;html=1;strokeColor=default;endArrow=none;endFill=0;" edge="1" parent="1" source="cjnw1ftKUHv8uV_TTD3V-2" target="cjnw1ftKUHv8uV_TTD3V-6">
                    <mxGeometry relative="1" as="geometry"/>
                </mxCell>
                <mxCell id="cjnw1ftKUHv8uV_TTD3V-2" value="&lt;font style=&quot;font-size: 22px;&quot;&gt;&lt;b&gt;circle&lt;/b&gt;&lt;/font&gt;" style="rounded=0;whiteSpace=wrap;html=1;" vertex="1" parent="1">
                    <mxGeometry x="270" y="550" width="120" height="65" as="geometry"/>
                </mxCell>
                <mxCell id="cjnw1ftKUHv8uV_TTD3V-5" value="" style="edgeStyle=none;html=1;" edge="1" parent="1" source="cjnw1ftKUHv8uV_TTD3V-6" target="cjnw1ftKUHv8uV_TTD3V-8">
                    <mxGeometry relative="1" as="geometry"/>
                </mxCell>
                <mxCell id="cjnw1ftKUHv8uV_TTD3V-6" value="" style="shape=waypoint;sketch=0;size=6;pointerEvents=1;points=[];fillColor=default;resizable=0;rotatable=0;perimeter=centerPerimeter;snapToPoint=1;rounded=0;" vertex="1" parent="1">
                    <mxGeometry x="520" y="575" width="20" height="20" as="geometry"/>
                </mxCell>
                <mxCell id="cjnw1ftKUHv8uV_TTD3V-7" value="" style="edgeStyle=none;html=1;endArrow=none;endFill=0;startArrow=classic;startFill=1;" edge="1" parent="1" source="cjnw1ftKUHv8uV_TTD3V-8" target="cjnw1ftKUHv8uV_TTD3V-10">
                    <mxGeometry relative="1" as="geometry"/>
                </mxCell>
                <mxCell id="cjnw1ftKUHv8uV_TTD3V-8" value="&lt;b&gt;&lt;font style=&quot;font-size: 22px;&quot;&gt;&lt;font style=&quot;&quot;&gt;boot&lt;/font&gt;h&lt;/font&gt;&lt;/b&gt;" style="whiteSpace=wrap;html=1;sketch=0;pointerEvents=1;resizable=0;rounded=0;" vertex="1" parent="1">
                    <mxGeometry x="470" y="455" width="120" height="60" as="geometry"/>
                </mxCell>
                <mxCell id="cjnw1ftKUHv8uV_TTD3V-9" value="" style="edgeStyle=none;html=1;endArrow=none;endFill=0;" edge="1" parent="1" source="cjnw1ftKUHv8uV_TTD3V-10" target="cjnw1ftKUHv8uV_TTD3V-12">
                    <mxGeometry relative="1" as="geometry"/>
                </mxCell>
                <mxCell id="cjnw1ftKUHv8uV_TTD3V-10" value="" style="shape=waypoint;sketch=0;size=6;pointerEvents=1;points=[];fillColor=default;resizable=0;rotatable=0;perimeter=centerPerimeter;snapToPoint=1;rounded=0;" vertex="1" parent="1">
                    <mxGeometry x="320" y="475" width="20" height="20" as="geometry"/>
                </mxCell>
                <mxCell id="cjnw1ftKUHv8uV_TTD3V-11" value="" style="edgeStyle=none;html=1;endArrow=none;endFill=0;startArrow=classic;startFill=1;" edge="1" parent="1" source="cjnw1ftKUHv8uV_TTD3V-12" target="cjnw1ftKUHv8uV_TTD3V-14">
                    <mxGeometry relative="1" as="geometry"/>
                </mxCell>
                <mxCell id="cjnw1ftKUHv8uV_TTD3V-12" value="&lt;font style=&quot;font-size: 22px;&quot;&gt;&lt;b&gt;room&lt;/b&gt;&lt;/font&gt;" style="whiteSpace=wrap;html=1;sketch=0;pointerEvents=1;resizable=0;rounded=0;" vertex="1" parent="1">
                    <mxGeometry x="270" y="355" width="120" height="60" as="geometry"/>
                </mxCell>
                <mxCell id="cjnw1ftKUHv8uV_TTD3V-13" value="" style="edgeStyle=none;html=1;endArrow=none;endFill=0;" edge="1" parent="1" source="cjnw1ftKUHv8uV_TTD3V-14" target="cjnw1ftKUHv8uV_TTD3V-15">
                    <mxGeometry relative="1" as="geometry"/>
                </mxCell>
                <mxCell id="cjnw1ftKUHv8uV_TTD3V-14" value="" style="shape=waypoint;sketch=0;size=6;pointerEvents=1;points=[];fillColor=default;resizable=0;rotatable=0;perimeter=centerPerimeter;snapToPoint=1;rounded=0;" vertex="1" parent="1">
                    <mxGeometry x="120" y="375" width="20" height="20" as="geometry"/>
                </mxCell>
                <mxCell id="cjnw1ftKUHv8uV_TTD3V-15" value="&lt;font style=&quot;font-size: 22px;&quot;&gt;&lt;b&gt;floor&lt;/b&gt;&lt;/font&gt;" style="whiteSpace=wrap;html=1;sketch=0;pointerEvents=1;resizable=0;rounded=0;" vertex="1" parent="1">
                    <mxGeometry x="70" y="255" width="120" height="60" as="geometry"/>
                </mxCell>
            </root>
        </mxGraphModel>
    </diagram>
    <diagram id="G5keb-kNNSBFR4qyGwEx" name="ページ1">
        <mxGraphModel dx="1371" dy="826" grid="1" gridSize="10" guides="1" tooltips="1" connect="1" arrows="1" fold="1" page="1" pageScale="1" pageWidth="827" pageHeight="1169" math="0" shadow="0">
            <root>
                <mxCell id="0"/>
                <mxCell id="1" parent="0"/>
                <mxCell id="12" value="" style="edgeStyle=none;html=1;strokeColor=default;endArrow=none;endFill=0;" edge="1" parent="1" source="2" target="11">
                    <mxGeometry relative="1" as="geometry"/>
                </mxCell>
                <mxCell id="2" value="&lt;font style=&quot;font-size: 22px;&quot;&gt;&lt;b&gt;circle&lt;/b&gt;&lt;/font&gt;" style="rounded=0;whiteSpace=wrap;html=1;" vertex="1" parent="1">
                    <mxGeometry x="270" y="550" width="120" height="65" as="geometry"/>
                </mxCell>
                <mxCell id="4" style="edgeStyle=none;html=1;" edge="1" parent="1" source="3" target="2">
                    <mxGeometry relative="1" as="geometry"/>
                </mxCell>
                <mxCell id="6" value="&lt;font style=&quot;font-size: 12px;&quot;&gt;サークル名で検索&lt;/font&gt;" style="edgeLabel;html=1;align=center;verticalAlign=middle;resizable=0;points=[];" vertex="1" connectable="0" parent="4">
                    <mxGeometry x="0.1065" relative="1" as="geometry">
                        <mxPoint x="-9" as="offset"/>
                    </mxGeometry>
                </mxCell>
                <mxCell id="3" value="user" style="shape=umlActor;verticalLabelPosition=bottom;verticalAlign=top;html=1;outlineConnect=0;" vertex="1" parent="1">
                    <mxGeometry x="30" y="507.5" width="77.5" height="155" as="geometry"/>
                </mxCell>
                <mxCell id="14" value="" style="edgeStyle=none;html=1;" edge="1" parent="1" source="11" target="13">
                    <mxGeometry relative="1" as="geometry"/>
                </mxCell>
                <mxCell id="11" value="" style="shape=waypoint;sketch=0;size=6;pointerEvents=1;points=[];fillColor=default;resizable=0;rotatable=0;perimeter=centerPerimeter;snapToPoint=1;rounded=0;" vertex="1" parent="1">
                    <mxGeometry x="520" y="575" width="20" height="20" as="geometry"/>
                </mxCell>
                <mxCell id="19" value="" style="edgeStyle=none;html=1;endArrow=none;endFill=0;" edge="1" parent="1" source="13" target="18">
                    <mxGeometry relative="1" as="geometry"/>
                </mxCell>
                <mxCell id="13" value="&lt;b&gt;&lt;font style=&quot;font-size: 22px;&quot;&gt;&lt;font style=&quot;&quot;&gt;boot&lt;/font&gt;h&lt;/font&gt;&lt;/b&gt;" style="whiteSpace=wrap;html=1;sketch=0;pointerEvents=1;resizable=0;rounded=0;" vertex="1" parent="1">
                    <mxGeometry x="470" y="455" width="120" height="60" as="geometry"/>
                </mxCell>
                <mxCell id="21" value="" style="edgeStyle=none;html=1;" edge="1" parent="1" source="18" target="20">
                    <mxGeometry relative="1" as="geometry"/>
                </mxCell>
                <mxCell id="18" value="" style="shape=waypoint;sketch=0;size=6;pointerEvents=1;points=[];fillColor=default;resizable=0;rotatable=0;perimeter=centerPerimeter;snapToPoint=1;rounded=0;" vertex="1" parent="1">
                    <mxGeometry x="320" y="475" width="20" height="20" as="geometry"/>
                </mxCell>
                <mxCell id="23" value="" style="edgeStyle=none;html=1;endArrow=none;endFill=0;" edge="1" parent="1" source="20" target="22">
                    <mxGeometry relative="1" as="geometry"/>
                </mxCell>
                <mxCell id="20" value="&lt;font style=&quot;font-size: 22px;&quot;&gt;&lt;b&gt;room&lt;/b&gt;&lt;/font&gt;" style="whiteSpace=wrap;html=1;sketch=0;pointerEvents=1;resizable=0;rounded=0;" vertex="1" parent="1">
                    <mxGeometry x="270" y="355" width="120" height="60" as="geometry"/>
                </mxCell>
                <mxCell id="25" value="" style="edgeStyle=none;html=1;" edge="1" parent="1" source="22" target="24">
                    <mxGeometry relative="1" as="geometry"/>
                </mxCell>
                <mxCell id="22" value="" style="shape=waypoint;sketch=0;size=6;pointerEvents=1;points=[];fillColor=default;resizable=0;rotatable=0;perimeter=centerPerimeter;snapToPoint=1;rounded=0;" vertex="1" parent="1">
                    <mxGeometry x="120" y="375" width="20" height="20" as="geometry"/>
                </mxCell>
                <mxCell id="24" value="&lt;font style=&quot;font-size: 22px;&quot;&gt;&lt;b&gt;floor&lt;/b&gt;&lt;/font&gt;" style="whiteSpace=wrap;html=1;sketch=0;pointerEvents=1;resizable=0;rounded=0;" vertex="1" parent="1">
                    <mxGeometry x="70" y="255" width="120" height="60" as="geometry"/>
                </mxCell>
            </root>
        </mxGraphModel>
    </diagram>
</mxfile>